<?xml version="1.0" encoding="UTF-8"?>
<!-- Generator: Adobe Illustrator 16.0.0, SVG Export Plug-In . SVG Version: 6.00 Build 0)  -->
<!DOCTYPE svg PUBLIC "-//W3C//DTD SVG 1.1//EN" "http://www.w3.org/Graphics/SVG/1.1/DTD/svg11.dtd">
<svg version="1.1" id="Layer_2" xmlns:x="http://ns.adobe.com/Extensibility/1.0/" xmlns:i="http://ns.adobe.com/AdobeIllustrator/10.0/" xmlns:graph="http://ns.adobe.com/Graphs/1.0/" xmlns="http://www.w3.org/2000/svg" xmlns:xlink="http://www.w3.org/1999/xlink" x="0px" y="0px" width="478.892px" height="185.17px" viewBox="42.823 109.218 478.892 185.17" enable-background="new 42.823 109.218 478.892 185.17" xml:space="preserve">
<metadata>
	<sfw xmlns="http://ns.adobe.com/SaveForWeb/1.0/">
		<slices/>
		<sliceSourceBounds height="185.171" width="478.892" y="302.111" x="60.823" bottomLeftOrigin="true"/>
	</sfw>
</metadata>
<path stroke="#231F20" stroke-width="4" d="M234.919,155.558c0,0-1.475,4.952,0.21,7.375c1.686,2.423,24.86,1.791,24.86,1.791  l-11.27-10.219L234.919,155.558z"/>
<path stroke="#231F20" stroke-width="4" d="M52.706,132.702c0,0,119.181,32.087,233.779,32.087  c114.598,0,214.679-51.187,218.5-53.479c3.818-2.292,12.986,38.963,0.765,48.131c-12.225,9.168-80.983,48.896-216.208,48.896  c-135.226,0-233.015-21.392-239.892-29.032C42.774,171.665,42.774,141.106,52.706,132.702z"/>
<path stroke="#231F20" stroke-width="4" d="M294.889,235.84c0,0-22.156-6.111-28.268-21.392  c-6.111-15.279,58.827-29.795,58.827-29.795l-6.112,31.324L294.889,235.84z"/>
<path stroke="#231F20" stroke-width="4" d="M238.354,212.156c0,0,30.56,21.392,35.143,19.1c4.584-2.292,58.827-36.671,58.827-36.671  l-45.839-33.615l-50.423,38.2L238.354,212.156z"/>
<path stroke="#231F20" stroke-width="4" d="M65.693,261.814c0,0,125.293-76.397,200.928-106.958  c75.635-30.56,30.561,29.031,30.561,29.031s-78.69,38.199-110.779,57.299c-32.088,19.1-81.746,50.424-87.858,51.188  C92.433,293.139,65.693,261.814,65.693,261.814z"/>
<path stroke="#231F20" stroke-width="4" d="M298.842,136.807c0,0-5.29-1.851-14.146,8.46c-8.857,10.312,15.07,8.197,15.07,8.197  L298.842,136.807z"/>
<path stroke="#231F20" stroke-width="4" d="M275.025,138.05c0,0,94.734,49.659,127.586,60.355  c32.851,10.696,113.832,46.603,116.889,55.771s-27.503,30.559-27.503,30.559s-23.685-21.391-54.243-34.379  c-30.56-12.986-83.273-34.379-112.306-48.131c-29.031-13.75-89.387-47.367-89.387-47.367L275.025,138.05z"/>
<path stroke="#231F20" stroke-width="4" d="M298.709,137.286c0,0-2.292,92.442-4.584,97.026  c-2.293,4.584,42.783-12.987,43.546-18.336c0.765-5.349,6.877-50.423,2.293-55.007S303.292,134.994,298.709,137.286z"/>
<path fill="#FFFFFF" stroke="#231F20" stroke-width="4" d="M95.708,243.844c0,0,20.641,24.654,33.446,31.918  c4.013-1.912,87.34-50.839,87.34-50.839s-25.801-22.933-29.623-32.107C179.418,197.021,95.708,243.844,95.708,243.844z"/>
</svg>